<svg width="90" height="90" viewBox="0 0 90 90" fill="none" xmlns="http://www.w3.org/2000/svg">
<path d="M57.4278 41.3438C53.3671 41.5196 50.9941 42.2051 49.5175 43.6466C47.8125 45.2813 47.8125 47.3555 47.8125 48.8672V48.92C47.8125 50.9591 48.0409 53.0684 49.6758 54.5976C51.0292 55.8633 52.9629 56.4258 55.9863 56.4258C56.5137 56.4258 57.0938 56.4083 57.6562 56.373C62.1738 56.127 65.2675 55.5117 66.6913 53.2266C67.6054 51.7676 67.623 49.9746 66.7442 47.9004C65.795 45.5097 63.9844 41.0801 57.4278 41.3438ZM64.3183 51.7325C63.4921 53.0508 60.5567 53.4024 57.498 53.5782C56.9708 53.6133 56.4609 53.6309 55.9863 53.6309C53.7715 53.6309 52.3828 53.297 51.6094 52.5762C50.9062 51.9083 50.625 50.8887 50.625 48.9375V48.8672C50.625 47.4258 50.6778 46.4238 51.4688 45.668C52.3829 44.7716 54.3163 44.297 57.5508 44.1563C62.1387 43.9629 63.2637 46.7403 64.1778 48.9551V48.9726C64.9161 50.7657 64.4766 51.4863 64.3183 51.7325Z" fill="#333333"/>
<path d="M52.0312 84.4629C52.8047 84.4629 53.4375 83.83 53.4375 83.0566V77.08C53.4375 76.3066 52.8047 75.6738 52.0312 75.6738C51.2578 75.6738 50.625 76.3066 50.625 77.08V83.0566C50.625 83.83 51.2578 84.4629 52.0312 84.4629Z" fill="#333333"/>
<path d="M45 84.4629C45.7734 84.4629 46.4062 83.8301 46.4062 83.0567V73.5645C46.4062 72.791 45.7734 72.1583 45 72.1583C44.2266 72.1583 43.5938 72.791 43.5938 73.5645V83.0567C43.5938 83.8301 44.2266 84.4629 45 84.4629Z" fill="#333333"/>
<path d="M32.5547 41.3788C26.0509 41.0625 24.2051 45.5274 23.2031 47.9179L24.5039 48.4629L23.2031 47.9179C22.3418 50.0097 22.3594 51.8028 23.2559 53.2441C24.3281 54.9316 26.209 56.0566 32.291 56.3905C32.9063 56.4258 33.4513 56.4433 33.9785 56.4433C37.0196 56.4433 38.9531 55.8808 40.2892 54.6153C41.9239 53.0683 42.1525 50.9766 42.1525 48.9375V48.8847C42.1525 47.373 42.1525 45.2988 40.465 43.6816C38.9708 42.2403 36.5977 41.5546 32.5547 41.3788ZM39.34 48.955C39.34 50.9062 39.0587 51.9258 38.3555 52.5937C37.5997 53.3145 36.211 53.6484 33.9785 53.6484C33.5216 53.6484 33.0293 53.6308 32.4668 53.5957C29.4259 53.4199 26.4902 53.0859 25.6465 51.75C25.5059 51.5215 25.0664 50.8183 25.8047 48.9903C26.7892 46.6347 27.8965 43.9629 32.4317 44.1913C35.6485 44.332 37.5821 44.8066 38.5138 45.7207C39.2872 46.459 39.34 47.4258 39.34 48.9024V48.955Z" fill="#333333"/>
<path d="M37.9688 84.4629C38.7422 84.4629 39.375 83.83 39.375 83.0566V77.08C39.375 76.3066 38.7422 75.6738 37.9688 75.6738C37.1953 75.6738 36.5625 76.3066 36.5625 77.08V83.0566C36.5625 83.83 37.1953 84.4629 37.9688 84.4629Z" fill="#333333"/>
<path d="M87.1699 74.373L86.9941 73.8105C85.0782 67.7109 83.3556 62.3671 81.8439 57.8496C81.1758 54.6153 77.2911 36.2988 74.8302 32.9062C74.7949 32.8711 74.7774 32.8359 74.7423 32.8008C74.6895 28.2129 73.9512 18.1582 68.9064 11.6016C63.334 4.37695 54.3165 3.12891 49.8165 2.98828C49.6935 2.79492 49.5703 2.60155 49.4298 2.42578L49.2891 2.25C48.252 0.93164 46.6876 0.175781 45.0001 0.175781C43.3126 0.175781 41.7481 0.93164 40.7286 2.25L40.5703 2.44336C40.4298 2.61913 40.3066 2.8125 40.1836 3.00586C37.7052 3.07617 34.2949 3.48046 30.7969 4.74609C26.7364 6.22266 23.4844 8.54296 21.1114 11.6191C16.0665 18.1582 15.3282 28.2129 15.2754 32.8008C15.2403 32.8359 15.2227 32.8711 15.1876 32.9062C12.6563 36.3867 8.63091 55.5645 8.10357 58.078C5.39653 66.1113 2.95317 74.0215 2.8477 74.373C2.60161 75.1288 2.90044 75.955 3.56841 76.377L22.0782 88.3653C23.502 89.2792 25.1368 89.7715 26.8419 89.8066H26.8594C26.9298 89.8066 27.0001 89.8066 27.0703 89.8066H62.8594C62.9298 89.8066 63 89.8066 63.0703 89.8066H63.0879C64.7403 89.7538 66.375 89.2617 67.834 88.3653L86.3965 76.3593L86.4493 76.3242C87.1524 75.8847 87.4161 75.0937 87.1699 74.373ZM24.5566 86.1855C24.0294 85.6582 23.7481 84.9726 23.7481 84.2167C23.7481 83.4609 24.0469 82.7578 24.5743 82.2129C25.6465 81.123 27.4395 81.123 28.5469 82.2304C29.0743 82.7578 29.3731 83.4433 29.3731 84.1992C29.3731 84.955 29.0743 85.6582 28.5294 86.203C28.0899 86.6601 27.4923 86.9413 26.8419 86.9941C26.4024 86.9766 25.9629 86.9062 25.5411 86.8183C25.1895 86.6953 24.8379 86.4667 24.5566 86.1855ZM30.5157 80.2266C29.8302 79.5586 29.0391 79.084 28.1778 78.8379L39.6036 68.2383C40.5703 69.2754 41.8536 69.4336 42.5743 69.4336H45.0001H47.4258C48.8673 69.4336 49.7989 68.8711 50.3965 68.2383L61.8223 78.8379C60.961 79.1016 60.1699 79.5586 59.4844 80.2266C58.4122 81.2812 57.832 82.6875 57.832 84.1816C57.832 85.1836 58.0957 86.1504 58.5879 87.0117H31.4298C31.9219 86.1679 32.1856 85.2012 32.1856 84.1816C32.1681 82.6875 31.5879 81.2812 30.5157 80.2266ZM41.1153 64.0546C41.1153 61.9101 42.1173 59.4141 44.9649 59.4141H45.0001H45.0352C47.8828 59.4141 48.8848 61.9101 48.8848 64.0546C48.8848 66.6211 47.9356 66.6211 47.4258 66.6211H45.0001H42.5743C42.0645 66.6211 41.1153 66.6211 41.1153 64.0546ZM61.4707 86.1855C60.9435 85.6582 60.6445 84.9375 60.6445 84.1816C60.6445 83.4433 60.9435 82.7403 61.4707 82.2129C62.5782 81.123 64.3536 81.1054 65.4435 82.1953C66.5332 83.3028 66.5508 85.078 65.4435 86.1679C65.1798 86.4316 64.8457 86.6425 64.5294 86.7655C64.0899 86.8887 63.6328 86.9413 63.1758 86.9766C62.5254 86.9413 61.9278 86.6601 61.4707 86.1855ZM67.1133 79.9101L51.5919 65.4961C51.6622 65.0566 51.6973 64.5645 51.6973 64.0371C51.6973 59.6425 48.9552 56.584 45.0352 56.584H45.0001H44.9649C41.0449 56.584 38.3028 59.6425 38.3028 64.0371C38.3028 64.5645 38.3379 65.0566 38.4082 65.4961L22.8868 79.9101C22.0957 76.3242 20.7774 71.1034 18.9141 66.5683C16.4883 60.6796 13.7637 56.3379 12.375 54.2988C13.6934 50.5371 14.959 47.0917 15.961 44.8417C17.209 42.0117 18.9141 38.127 26.4552 38.127C30.0411 38.127 32.9415 38.9179 35.5078 39.6211C37.7227 40.2187 39.8145 40.7812 42.0118 40.7812H48.0235C50.2207 40.7812 52.3126 40.2187 54.5274 39.6211C57.0939 38.9179 59.9941 38.127 63.5802 38.127C71.1036 38.127 72.8262 42.0117 74.0743 44.8417C74.9707 46.8633 76.1661 50.0625 77.6427 54.2812C76.254 56.3203 73.5118 60.6621 71.086 66.5683C69.2227 71.1034 67.9044 76.3242 67.1133 79.9101ZM39.4102 29.3554V37.6875C38.4082 37.4941 37.3711 37.2129 36.2461 36.8965C33.504 36.1582 30.4102 35.3145 26.4552 35.3145C20.3028 35.3145 17.1564 37.6699 15.3457 40.1133C16.1544 37.4062 16.8927 35.332 17.4376 34.5762C21.2169 29.4082 30.0235 29.3554 39.4102 29.3554ZM50.5899 29.3554C59.959 29.3554 68.7832 29.4082 72.5449 34.5762C73.0899 35.332 73.8282 37.3711 74.6191 40.0429C72.8086 37.6171 69.6622 35.3145 63.5802 35.3145C59.6251 35.3145 56.5314 36.1582 53.7891 36.8965C52.6465 37.2129 51.6094 37.4941 50.5899 37.6875V29.3554ZM66.6739 13.3418C70.3828 18.1582 71.5078 25.2774 71.8243 30.0409C66.709 26.578 58.8516 26.5429 50.5899 26.5429V5.85351C54.8262 6.11718 62.1387 7.4707 66.6739 13.3418ZM42.7677 4.18359L42.9082 3.99024C43.4181 3.35742 44.1739 2.98828 44.9824 2.98828C45.7911 2.98828 46.5469 3.35742 47.0743 4.0078L47.2149 4.18359C47.5665 4.64062 47.7774 5.2207 47.7774 5.80078V37.9687H42.2227V5.80078C42.2227 5.2207 42.4161 4.64062 42.7677 4.18359ZM23.3262 13.3418C27.8614 7.4707 35.1739 6.11718 39.4102 5.85351V26.5429C31.1485 26.5429 23.2911 26.578 18.1758 30.0409C18.4923 25.2597 19.6173 18.1582 23.3262 13.3418ZM11.2149 57.6738C12.6211 59.9238 14.5547 63.3516 16.3126 67.6405C18.9493 74.0566 20.5137 82.248 20.8828 84.2167L5.78325 74.4433C6.50395 72.123 8.80669 64.7754 11.2149 57.6738ZM69.1173 84.2343C69.4689 82.2655 71.0332 74.0742 73.6876 67.6405C75.4629 63.334 77.3965 59.9062 78.8028 57.6562C78.9082 57.9726 79.0137 58.2891 79.1368 58.623C79.1368 58.6582 79.1544 58.6933 79.1544 58.7109H79.1719C80.6836 63.1933 82.3887 68.4843 84.2695 74.4609L69.1173 84.2343Z" fill="#333333"/>
</svg>
