<svg width="90" height="90" viewBox="0 0 90 90" fill="none" xmlns="http://www.w3.org/2000/svg">
<path d="M30.4101 53.1563C36.9317 53.1563 42.2403 47.8476 42.2403 41.3262C42.2403 34.8047 36.9317 29.4962 30.4101 29.4962C23.8887 29.4962 18.5801 34.8047 18.5801 41.3262C18.5801 47.8476 23.8887 53.1563 30.4101 53.1563ZM30.4101 32.3087C35.3847 32.3087 39.4278 36.3516 39.4278 41.3262C39.4278 46.3008 35.3847 50.3438 30.4101 50.3438C25.4355 50.3438 21.3926 46.3008 21.3926 41.3262C21.3926 36.3516 25.4355 32.3087 30.4101 32.3087Z" fill="#333333"/>
<path d="M61.4005 44.332C65.3029 44.332 68.4845 41.1504 68.4845 37.248C68.4845 33.3457 65.3029 30.1641 61.4005 30.1641C57.4981 30.1641 54.3164 33.3457 54.3164 37.248C54.3164 41.1504 57.4981 44.332 61.4005 44.332ZM61.4005 32.9766C63.7559 32.9766 65.672 34.8925 65.672 37.248C65.672 39.6034 63.7559 41.5195 61.4005 41.5195C59.045 41.5195 57.1289 39.6034 57.1289 37.248C57.1289 34.8925 59.045 32.9766 61.4005 32.9766Z" fill="#333333"/>
<path d="M88.2071 20.0567C85.3771 15.1524 78.1876 13.3242 67.9219 14.8535C61.3654 9.84376 53.3848 7.11914 44.9825 7.11914C34.8575 7.11914 25.3477 11.0566 18.1934 18.2109C11.0392 25.3653 7.11924 34.875 7.11924 45C7.11924 46.6171 7.22471 48.2167 7.41806 49.7988C0.966895 57.9024 -1.03701 65.0566 1.79306 69.9609C3.97275 73.7403 8.73642 75.6913 15.5039 75.6913C17.5255 75.6913 19.7227 75.5157 22.0783 75.1641C28.6348 80.1738 36.6154 82.8808 45.0001 82.8808C55.1251 82.8808 64.6348 78.9433 71.7892 71.7891C78.9434 64.6347 82.8809 55.125 82.8809 45C82.8809 43.4004 82.7755 41.8008 82.5821 40.2363C85.7813 36.2109 87.9785 32.291 88.9279 28.7403C89.8418 25.3653 89.5958 22.4472 88.2071 20.0567ZM45.0001 9.93164C62.4376 9.93164 76.9219 22.7109 79.6114 39.3926C73.6876 46.4766 64.4942 53.9824 53.7539 60.1875C43.1017 66.3399 32.1856 70.5586 22.8692 72.1758C14.9767 65.7421 9.93174 55.9512 9.93174 45C9.93174 25.6641 25.6642 9.93164 45.0001 9.93164ZM4.21884 68.5546C2.25009 65.1445 3.65634 59.7657 8.08604 53.578C9.66806 60.4159 13.131 66.709 18.211 71.7891C18.5275 72.1054 18.8263 72.4042 19.1602 72.7032C11.5665 73.4238 6.18759 71.9649 4.21884 68.5546ZM65.4259 73.4941C64.8985 72.5274 64.5821 71.4199 64.5821 70.4004C64.5821 66.9903 67.3418 64.2304 70.7521 64.2304C71.7539 64.2304 72.8263 64.5292 73.7755 65.0215C71.4904 68.2909 68.6602 71.1562 65.4259 73.4941ZM80.0684 45C80.0684 51.4336 78.3283 57.4629 75.2872 62.6484C73.8809 61.8574 72.2813 61.4179 70.7521 61.4179C65.795 61.4179 61.7696 65.4433 61.7696 70.4004C61.7696 71.9824 62.2442 73.6347 63.0704 75.0409C57.7969 78.2226 51.6094 80.0683 45.0001 80.0683C37.9864 80.0683 31.465 77.9941 25.9805 74.4433C34.9981 72.4921 45.211 68.3788 55.1602 62.6308C65.2852 56.7949 73.9337 49.9571 80.0333 43.2421C80.0509 43.8222 80.0684 44.4199 80.0684 45ZM86.2208 28.002C85.5176 30.6035 84.041 33.4688 81.9142 36.4395C80.3321 29.5841 76.8868 23.3087 71.7892 18.2109C71.4904 17.9121 71.1739 17.6133 70.8575 17.3145C78.4513 16.5938 83.8126 18.0528 85.7813 21.4629C86.7658 23.1855 86.9239 25.3829 86.2208 28.002Z" fill="#333333"/>
</svg>
