<svg width="90" height="90" viewBox="0 0 90 90" fill="none" xmlns="http://www.w3.org/2000/svg">
<path d="M87.4512 58.4825V33.3105H88.5938C89.3671 33.3105 90 32.6778 90 31.9043C90 31.1309 89.3671 30.498 88.5938 30.498H87.4512V27.1054C87.4512 26.332 86.8184 25.6992 86.045 25.6992C85.2716 25.6992 84.6387 26.332 84.6387 27.1054V30.498H83.4962C82.7226 30.498 82.0899 31.1309 82.0899 31.9043C82.0899 32.6778 82.7226 33.3105 83.4962 33.3105H84.6387V58.4825C83.1972 59.045 82.1778 60.4512 82.1778 62.0859V63.4746H78.1524C77.9766 63.4746 77.7832 63.4746 77.6075 63.4746V38.5488H78.3457C79.1191 38.5488 79.752 37.9161 79.752 37.1425C79.752 36.3691 79.1191 35.7363 78.3457 35.7363H77.6075V32.3613C77.6075 31.5879 76.9746 30.955 76.2012 30.955C75.4278 30.955 74.795 31.5879 74.795 32.3613V35.7363H74.0391C73.2657 35.7363 72.6329 36.3691 72.6329 37.1425C72.6329 37.9161 73.2657 38.5488 74.0391 38.5488H74.795V63.3692C70.4883 63.1055 66.2168 62.3321 62.0683 61.0663C61.2949 60.0645 60.0821 59.4141 58.7285 59.4141H55.7579L49.4649 4.18359C49.2188 1.93359 47.3907 0.210938 45.1758 0.0527344V0.0351562C45.123 0.0351562 45.0528 0.0351562 45 0.0351562C44.9472 0.0351562 44.877 0.0351562 44.8242 0.0351562V0.0527344C42.6093 0.210938 40.7812 1.93359 40.5351 4.18359L34.2421 59.4317H31.2715C29.9179 59.4317 28.705 60.082 27.9316 61.084C23.7832 62.3496 19.5117 63.123 15.205 63.3867V38.5488H15.9609C16.7343 38.5488 17.3671 37.9161 17.3671 37.1425C17.3671 36.3691 16.7343 35.7363 15.9609 35.7363H15.205V32.3613C15.205 31.5879 14.5723 30.955 13.7988 30.955C13.0254 30.955 12.3926 31.5879 12.3926 32.3613V35.7363H11.6543C10.8809 35.7363 10.248 36.3691 10.248 37.1425C10.248 37.9161 10.8809 38.5488 11.6543 38.5488H12.3926V63.4746C12.2168 63.4746 12.0234 63.4746 11.8477 63.4746H7.82226V62.0859C7.82226 60.4512 6.80274 59.045 5.36133 58.4825V33.3105H6.50391C7.27734 33.3105 7.91016 32.6778 7.91016 31.9043C7.91016 31.1309 7.27734 30.498 6.50391 30.498H5.36133V27.1054C5.36133 26.332 4.72851 25.6992 3.95508 25.6992C3.18163 25.6992 2.54883 26.332 2.54883 27.1054V30.498H1.40625C0.632812 30.498 0 31.1309 0 31.9043C0 32.6778 0.632812 33.3105 1.40625 33.3105H2.54883V58.4825C1.10742 59.045 0.0878907 60.4512 0.0878907 62.0859V78.2579C0.0878907 80.3848 1.82812 82.125 3.95508 82.125C5.48438 82.125 6.82032 81.2286 7.45312 79.9278L16.0312 81.7911C21.041 82.8809 26.2266 83.4609 31.4472 83.5312V88.5762C31.4472 89.3496 32.0801 89.9825 32.8535 89.9825C33.627 89.9825 34.2597 89.3496 34.2597 88.5762V84.2345L35.1738 84.6212C38.25 85.922 41.4843 86.6075 44.8242 86.6425C44.877 86.6425 44.9472 86.6425 45 86.6425C45.0528 86.6425 45.123 86.6425 45.1758 86.6425C48.5157 86.5899 51.7676 85.922 54.8262 84.6212L55.7403 84.2345V88.5762C55.7403 89.3496 56.373 89.9825 57.1465 89.9825C57.9199 89.9825 58.5528 89.3496 58.5528 88.5762V83.4962C63.9316 83.3907 69.293 82.7403 74.5137 81.5274L82.4413 79.6817C83.0038 81.1055 84.4101 82.125 86.0274 82.125C88.1543 82.125 89.8945 80.3848 89.8945 78.2579V62.0859C89.9121 60.4512 88.8925 59.045 87.4512 58.4825ZM60.1347 63.6504V72.3867C60.1347 74.0391 58.7988 75.375 57.1465 75.375C55.4941 75.375 54.1582 74.0391 54.1582 72.3867V63.6504C54.1582 62.877 54.791 62.2442 55.5645 62.2442H58.7285C59.502 62.2442 60.1347 62.877 60.1347 63.6504ZM45 2.84766C45.8613 2.93554 46.5821 3.60351 46.6875 4.5L47.5663 12.2168C46.8282 11.9531 45.9668 11.7422 45.0175 11.7422C44.0508 11.7422 43.1895 11.9355 42.4688 12.1817L43.3476 4.5C43.4179 3.62109 44.1387 2.93554 45 2.84766ZM29.8653 63.6504C29.8653 62.877 30.498 62.2442 31.2715 62.2442H34.4355C35.209 62.2442 35.8418 62.877 35.8418 63.6504V72.3867C35.8418 74.0391 34.5059 75.375 32.8535 75.375C31.2012 75.375 29.8653 74.0391 29.8653 72.3867V63.6504ZM5.00976 78.2579C5.00976 78.8379 4.53516 79.3125 3.95508 79.3125C3.375 79.3125 2.90039 78.8379 2.90039 78.2579V62.0859C2.90039 61.5058 3.375 61.0312 3.95508 61.0312C4.53516 61.0312 5.00976 61.5058 5.00976 62.0859V78.2579ZM7.82226 77.1153V66.2871H11.8477C12.4102 66.2871 12.9727 66.2695 13.5352 66.252C13.623 66.2695 13.7109 66.2871 13.7988 66.2871C13.9219 66.2871 14.0449 66.2695 14.1504 66.2345C18.5097 66.0586 22.834 65.3907 27.0528 64.248V72.3692C27.0528 75.0762 28.9336 77.3613 31.4472 77.9942V80.6837C26.4375 80.6309 21.4454 80.0684 16.6289 79.0137L7.82226 77.1153ZM53.7363 82.002C50.959 83.1796 48.0234 83.7774 45 83.8125C41.9766 83.795 39.041 83.1796 36.2637 82.002L34.2597 81.1582V78.0117C36.7734 77.3789 38.6543 75.0938 38.6543 72.3867V63.6504C38.6543 62.2793 37.9863 61.0488 36.9668 60.2754L42.0645 15.5216C42.3808 15.2754 43.4883 14.5547 45 14.5547C46.3712 14.5547 47.5312 15.2578 47.9355 15.5391L53.0332 60.2754C52.0137 61.0488 51.3457 62.2617 51.3457 63.6504V72.3867C51.3457 75.0938 53.2266 77.3789 55.7403 78.0117V81.1582L53.7363 82.002ZM73.8808 78.7852C68.8711 79.9454 63.7207 80.5957 58.5528 80.6837V78.0117C61.0663 77.3789 62.9472 75.0938 62.9472 72.3867V64.2657C67.166 65.4082 71.4903 66.0762 75.8496 66.252C75.955 66.2871 76.0782 66.3046 76.2012 66.3046C76.2891 66.3046 76.377 66.2871 76.4649 66.2695C77.0274 66.2871 77.5899 66.3046 78.1524 66.3046H82.1778V76.8692L73.8808 78.7852ZM87.0996 78.2579C87.0996 78.8379 86.625 79.3125 86.045 79.3125C85.4649 79.3125 84.9903 78.8379 84.9903 78.2579V62.0859C84.9903 61.5058 85.4649 61.0312 86.045 61.0312C86.625 61.0312 87.0996 61.5058 87.0996 62.0859V78.2579Z" fill="#333333"/>
<path d="M48.5332 37.3008C48.3046 35.5429 46.7754 34.207 45 34.207C43.207 34.207 41.6953 35.5254 41.4667 37.2832L40.1836 46.4413C39.9024 48.3925 40.1484 50.4316 40.8691 52.3125C41.3965 53.6836 42.7324 54.5976 44.209 54.5976H45.0175H45.8262C47.3028 54.5976 48.6387 53.6836 49.1659 52.3125C49.8867 50.4316 50.1153 48.4101 49.8516 46.4413L48.5332 37.3008ZM46.5117 51.2929C46.4062 51.5742 46.1074 51.7851 45.8086 51.7851H45H44.1913C43.8925 51.7851 43.5937 51.5917 43.4883 51.2929C42.9433 49.8516 42.7675 48.3046 42.9784 46.828L44.2617 37.6524C44.3145 37.2832 44.6308 37.0195 45.0175 37.0195C45.3867 37.0195 45.7207 37.3008 45.7734 37.6699L47.0566 46.828C47.25 48.3222 47.0742 49.8691 46.5117 51.2929Z" fill="#333333"/>
<path d="M45 58.0605C42.6796 58.0605 40.7812 59.9589 40.7812 62.2792C40.7812 64.5996 42.6796 66.498 45 66.498C47.3204 66.498 49.2188 64.5996 49.2188 62.2792C49.2188 59.9589 47.3204 58.0605 45 58.0605ZM45 63.6855C44.2266 63.6855 43.5938 63.0526 43.5938 62.2792C43.5938 61.5058 44.2266 60.873 45 60.873C45.7734 60.873 46.4062 61.5058 46.4062 62.2792C46.4062 63.0526 45.7734 63.6855 45 63.6855Z" fill="white"/>
</svg>
